<?xml version="1.0" encoding="UTF-8" standalone="no"?>
<svg
   xmlns:dc="http://purl.org/dc/elements/1.1/"
   xmlns:cc="http://creativecommons.org/ns#"
   xmlns:rdf="http://www.w3.org/1999/02/22-rdf-syntax-ns#"
   xmlns:svg="http://www.w3.org/2000/svg"
   xmlns="http://www.w3.org/2000/svg"
   xmlns:sodipodi="http://sodipodi.sourceforge.net/DTD/sodipodi-0.dtd"
   xmlns:inkscape="http://www.inkscape.org/namespaces/inkscape"
   width="40.3333in"
   height="26.3611in"
   viewBox="0 0 2904 1898"
   version="1.1"
   id="svg81"
   sodipodi:docname="with_color_and_outline.svg"
   inkscape:version="0.92.2 5c3e80d, 2017-08-06">
  <metadata
     id="metadata87">
    <rdf:RDF>
      <cc:Work
         rdf:about="">
        <dc:format>image/svg+xml</dc:format>
        <dc:type
           rdf:resource="http://purl.org/dc/dcmitype/StillImage" />
        <dc:title></dc:title>
      </cc:Work>
    </rdf:RDF>
  </metadata>
  <defs
     id="defs85" />
  <sodipodi:namedview
     pagecolor="#ffffff"
     bordercolor="#666666"
     borderopacity="1"
     objecttolerance="10"
     gridtolerance="10"
     guidetolerance="10"
     inkscape:pageopacity="0"
     inkscape:pageshadow="2"
     inkscape:window-width="1442"
     inkscape:window-height="857"
     id="namedview83"
     showgrid="false"
     inkscape:zoom="0.25368821"
     inkscape:cx="2368.2071"
     inkscape:cy="1309.2797"
     inkscape:window-x="0"
     inkscape:window-y="0"
     inkscape:window-maximized="0"
     inkscape:current-layer="svg81" />
  <path
     style="fill:#000000;stroke:#000000;stroke-width:1;fill-opacity:1"
     d="m 1804,57 c -21.7189,10.602614 -44.6657,56.43514 -85.9688,50.3025 -38.4688,1.67464 -77.963,17.1791 -105.2485,42.74111 -17.0837,18.31594 -39.9227,44.57086 -55.4346,70.7391 -27.8422,45.59061 -31.5974,85.73179 -26.363,80.79512 0.6077,28.60181 24.5842,32.80891 21.0149,57.42217 -30.1302,15.76666 -117.2334,39.44567 -105.93,36.88 -29.2856,9.1392 1.9879,-12.52743 -2.93,-73.84 -6.1604,-24.17672 -25.4567,-49.30068 -50.3221,-72.78429 C 1359.8338,209.76308 1282.2433,209.37259 1242.83,228.02 1159.1722,264.34958 1149.7794,374.21833 1092,413 c -32.6949,30.04276 -70.9424,64.892 -67.0694,113.20823 -0.8146,77.09417 63.4224,103.78396 2.8594,151.79177 -88.08265,80.01727 -177.80421,160.67772 -275.95,219.54 -50.18151,32.45575 -112.90486,61.03199 -167.36,74.91 -80.29478,42.1389 -175.86577,23.54978 -261.52,51.98 -44.21046,9.4282 -75.91656,32.8726 -118.17,55.24 -33.43705,17.7003 -63.80888,47.8827 -76.79,72.33 -10.08216,18.9877 -24.26513,42.9715 -34.91,71.99 -13.803236,37.6284 -34.576269,64.5988 -30.703101,114.01 -0.02192,22.2931 7.55951,57.9547 19.613101,85 13.742757,40.5529 20.17323,57.4259 55.42,79.19 36.76622,22.7023 80.41315,30.0078 125.55329,36.0802 C 346.06381,1549.4479 416.28998,1525.6608 490,1495 c 2.25796,26.2225 1.1619,31.6739 8.59554,62.2548 32.49691,85.9257 117.52833,79.8795 185.40446,86.7452 32.46093,1.5112 65.17248,3.7379 105.04517,-0.9092 C 915.91627,1619.8389 1040.0535,1571.3743 1122,1483 c 34.4775,-39.2049 63.3441,-45.0911 105.9737,-34.3463 50.4074,12.7052 108.4926,15.0868 160.0263,32.3463 -29.2602,20.8286 -35.3586,51.455 -40.7337,77.455 -8.5957,39.1996 4.4676,80.8496 29.7337,114.545 107.9758,91.0369 259.5532,57.5992 364,41 42.1079,-3.8361 72.7626,-56.7433 99,-5 92.0227,83.7852 219.7785,108.6064 338,85 40.6984,-13.2865 69.9186,-23.2652 106,-41 77.6971,-38.1897 137.845,-99.2317 192.17,-167.91 35.8698,-40.7479 48.713,-89.214 65.4994,-135.903 16.3935,-54.8332 33.2752,-111.4182 40.3606,-170.3582 7.0589,-51.6652 14.5332,-115.5609 13.32,-168.8288 -1.2466,-54.7311 -14.036,-95.7515 56.1792,-77.7807 41.2424,10.5556 76.1387,4.1126 89.0658,-42.92555 C 2751.7742,948.61573 2783.7598,911.2519 2805,877 c 28.6291,-46.16722 -7.8672,-63.77856 -30.45,-99.82 -41.2887,-44.36612 -98.3261,-74.10167 -159.55,-79.2 -53.3453,-29.14076 -101.6023,99.12301 -129.29,13.02 -11.4841,-30.10629 -72.5699,-74.37487 -27.71,-91.88 36.0019,-21.3145 78.375,-37.67092 109.1936,-66.55428 6.9017,-29.17836 6.043,-48.35071 5.4652,-83.99697 -12.4636,-74.98901 -39.7469,-154.4406 -79.8376,-211.765 C 2439.9411,249.22498 2386.0595,239.85987 2337,251 c -62.6723,5.61505 -160.3863,2.32742 -184.4683,59.54934 -11.0789,23.17959 -12.1576,75.81531 -16.5317,93.99471 -29.5997,-0.86452 -95.5998,-32.07283 -133.6896,-25.77722 C 1947.3229,381.41334 1941.8051,363.75119 1973,321 c 36.3942,-89.94073 23.3035,-139.1569 -45,-206 -52.7652,-35.635421 -66.3017,-48.658181 -124,-58 z"
     id="path182" />
  <path
     style="fill:#22ecff;stroke:#000000;stroke-width:1;fill-opacity:1"
     d="m 1903.7169,117.04202 c 46.8845,30.92117 96.2495,89.60308 69.5168,145.20673 -3.0435,29.12787 -26.1876,69.7026 -35.2337,86.75125 -21.542,30.77971 -33.4372,49.40536 -59.4637,79.09548 -36.4496,40.89476 -46.559,10.63088 -92.0256,10.08951 -36.3393,-0.43269 -53.4724,-5.62868 -84.2167,-0.95871 -40.3753,6.13288 -62.2838,4.32326 -82.1227,-24.58503 C 1601.8718,385.97608 1599.0049,383.05838 1572,347 c -55.9731,-103.17141 76.2291,-230.66244 160.83,-229.45 49.5283,-1.51219 36.1549,-31.59581 73.17,-42.55 11.0117,-15.911078 86.4854,32.34304 97.7169,42.04202 z"
     id="path180" />
  <path
     style="fill:none;stroke:#000000;stroke-width:1"
     d="m 1784,88 c 1.1381,2.747547 -2.7475,-1.138071 0,0 z"
     id="path178" />
  <path
     style="fill:#22ecff;stroke:#000000;stroke-width:1;fill-opacity:1"
     d="m 1431.73,334 c -1.9545,38.34907 -14.3379,77.82558 -21.59,108 -5.4106,21.72523 -2.5041,71.13868 -42.7438,66.24625 -37.0263,15.4836 -91.8557,39.28711 -130.3962,69.65375 -40.0239,20.84133 -66.4724,60.28368 -99,84.1 -87.5296,-18.44959 -99.6315,-123.44564 -101.8532,-142.07341 11.2971,-99.06379 87.9481,-92.53973 127.0632,-178.83659 20.2403,-72.01517 70.9001,-97.62698 132.79,-112.09 55.4147,-16.38807 133.7931,73.24182 135.73,105 z"
     id="path176" />
  <path
     style="fill:#22ecff;stroke:#000000;stroke-width:1;fill-opacity:1"
     d="m 2400,267 c 112.9492,25.59234 118.6331,60.19299 150,171 0.8317,37.89242 6.9137,73.53167 -8.8012,109.38375 C 2497.9198,564.78863 2462.4332,595.32944 2421,616 c -9.7793,3.66427 -52.1508,35.74029 -81.87,42.94 C 2286.4969,598.14758 2227.7476,546.12581 2152,520 c -29.2555,-86.44063 15.0786,-225.55855 78,-237.82 58.4173,-11.2774 107.7019,-19.83456 170,-15.18 z"
     id="path174" />
  <path
     style="fill:#ff7a00;stroke:#000700;stroke-width:1;stroke-opacity:1;fill-opacity:1"
     d="m 1582,396 c 17.6228,7.57474 66.6733,66.82038 53,61 76.5566,-16.98675 139.3083,-8.48323 199.8552,7.57711 59.5651,24.78388 78.2324,-98.563 136.1448,-69.27711 54.3552,3.13553 108.0148,18.53582 157,33.7 1.6215,12.39458 -14.276,96.56501 -10,78 -11.4429,25.77063 29.7312,31.96864 66,44 41.6681,20.05147 61.5705,40.48407 94,70 32.235,72.43049 93.7585,49.51882 146.3331,27.22594 21.2592,35.56317 42.7575,65.04059 59.7856,95.37031 21.4468,48.61669 -95.7062,57.41042 -57.2575,109.635 16.1017,31.42287 22.206,47.01316 27.1388,81.76875 7.5603,29.64639 8.8892,89.8577 48.5441,89.04 26.6921,-0.5504 77.9488,-17.0972 74.0253,25.4161 -3.7336,40.4558 -2.2647,76.5431 -1.1694,120.5439 1.692,67.9755 -7.0024,139.7747 -29.4,203 -7.8259,22.0916 -14.1054,65.4295 -27.6818,95.2468 -9.3502,20.5355 -18.5967,60.2064 -36.3182,83.7532 -63.409,84.2523 -144.1683,157.266 -238.2351,199.6728 -82.7885,30.1228 -178.9311,48.963 -258.2124,22.5374 C 1926.5987,1754.5601 1872.1769,1731.3571 1840,1680 c -13.3063,-27.4727 -24.7717,-70.8192 -35.3093,-109.9249 C 1785.9968,1510.2826 1753.7333,1440.3157 1702,1411 c -27.058,-10.871 -52.4296,-4.2579 -83.4993,-2.1463 -50.3976,14.1326 -34.0141,-33.92 -17.5007,-61.8537 22.091,-37.3685 61.9958,-57.2162 109.4025,-63.361 51.548,-1.0767 111.5536,2.081 140.5097,52.1663 69.6108,68.2584 108.7786,207.7583 190.9078,230.5947 24.5336,5.7765 59.6889,1.052 85.18,-15.4 -1.1857,-25.5969 -84.957,27.9653 -98,-11 31.7496,-25.0279 22.7089,-57.5319 -15,-14 -36.6404,1.5593 -62.0635,-58.629 -76,-88 -15.4397,-32.539 -36.8635,-63.5261 -57,-91 56.1283,-40.723 25.8274,-38.4715 -16.4025,-18.4237 C 1833.2181,1290.5783 1789.181,1269.6379 1757,1264 c -48.2641,3.6744 -95.5351,4.3032 -137.4975,34.5025 -26.6009,29.7491 -54.6178,56.3038 -55.1005,101.5665 -14.7557,25.9762 -54.6531,4.1573 -88.9246,21.7953 -34.9454,14.9129 -57.7024,49.4437 -92.4774,37.6357 -50.6745,-12.5932 -107.9404,-27.1155 -154,-28.5 -73.2064,-2.2005 -32.0162,-27.3842 -33,-57 -3.6531,1.8875 -31.6309,39.9608 -36,45 -10.8096,12.4673 -38.5505,51.8758 -78.4937,82.935 -77.96,58.0179 -103.39931,79.9143 -193.5063,108.455 -64.03094,14.0211 -132.12471,28.1737 -195.52262,18.2431 C 600.35198,1624.7765 488.91594,1591.1942 505,1488 c 8.278,-48.8319 35.35135,-96.0396 80.21751,-132.3693 61.58103,-49.8643 137.1076,-62.7749 212.78249,-57.8507 11.77821,0.7664 73.70381,-5.3603 2.48872,-17.0441 C 724.75922,1276.4768 640.81852,1294.0272 586,1338 c -25.73881,20.6465 -51.9547,46.1844 -67,69 -26.51413,40.2077 -19.42399,67.3312 -68.58167,86.8571 -28.91743,11.4863 -56.12755,22.3365 -83.24833,24.6229 -41.34824,3.4859 -82.52461,15.0538 -123.17,3.52 C 159.68599,1498.0745 109.15906,1484.332 86,1396 77.608564,1362.4693 62.300004,1312.7443 83.977813,1278.3736 97.305944,1257.2415 108.88105,1199.2645 136,1186 c 29.51064,37.5651 39.38641,12.0245 25.24211,3.4651 -6.75828,-4.0897 -13.29286,-22.774 -8.24211,-27.4651 3.98613,-42.7393 51.38023,-68.8995 84.885,-90.3488 33.33089,-17.3295 63.28006,-30.1077 93.115,-34.6512 37.82123,-11.8473 66.15016,-14.0863 110.04,-21.14 70.82465,2.2495 137.32061,-22.29915 199.34822,-50.4404 C 676.52967,951.63918 699.2407,940.90551 735,919 c 43.33167,-20.76616 83.0104,-54.10583 128.91,-81.61 79.28746,-58.34213 138.8914,-144.17513 220.6163,-187.3175 25.1074,9.99241 22.7241,9.69645 56.3737,23.6975 21.8801,3.68521 64.1133,-63.35815 103.4865,-82.92557 C 1286.3144,554.99082 1411.459,516.57105 1413,496 c 15.5554,-27.8372 5.5107,-83.64155 46,-91 37.1096,-2.70842 99.5025,-47.86122 123,-9 z"
     id="path172" />
  <path
     style="fill:none;stroke:#000000;stroke-width:1"
     d="m 2050,406 c 1.1381,2.74755 -2.7475,-1.13807 0,0 z"
     id="path170" />
  <path
     style="fill:#22ecff;stroke:#000000;stroke-width:1;fill-opacity:1"
     d="m 2660,723 c 48.3335,17.82291 94.5113,50.77507 119,87 25.4172,24.87501 22.878,51.69299 0.34,81.17 -19.7164,35.0091 -47.5857,75.53606 -60.34,107.83 -5.9581,28.1987 -64.481,5.9152 -91.9175,12.8936 -47.9636,-1.9368 -94.7372,-4.3543 -141.1225,-11.1836 -2.8424,-28.57111 -8.2379,-52.13275 -20.47,-89.91 -5.5409,-39.47838 -54.0105,-76.66578 -8.8868,-93.94061 C 2477.1743,800.96975 2498.7509,777.14378 2526,763 c 38.8577,-43.46681 72.7406,-65.37495 134,-40 z"
     id="path168" />
  <path
     style="fill:#000000;stroke:#000000;stroke-width:1"
     d="m 475,1243 c -7.26345,-0.401 -12.60772,20.4033 -23.86185,31.5617 -12.67473,12.5669 -28.58227,18.1577 -38.06815,21.4383 -75.26188,0.2646 -9.18473,23.9153 30.49786,1.9298 8.71582,-7.7782 61.22658,-53.285 31.43214,-54.9298 z"
     id="path166" />
  <path
     style="fill:#ff7a00;stroke:#000000;stroke-width:1;fill-opacity:1"
     d="m 1802.8563,1605.1722 c 20.7209,50.1245 -2.3481,70.9647 -34.8563,81.8278 -137.4152,22.54 -304.4079,68.6503 -390,-47 -14.3003,-32.0848 -18.6039,-72.4776 -5,-111 9.7503,-30.7857 37.3507,-53.4848 64.9125,-72.0238 74.4585,-50.6538 172.3807,-28.2947 257.4757,-36.5566 55.2275,34.4706 88.4781,138.8151 107.4681,184.7526 z"
     id="Selection" />
</svg>
