<?xml version="1.0" encoding="UTF-8" standalone="no"?>
<svg
   xmlns:dc="http://purl.org/dc/elements/1.1/"
   xmlns:cc="http://creativecommons.org/ns#"
   xmlns:rdf="http://www.w3.org/1999/02/22-rdf-syntax-ns#"
   xmlns:svg="http://www.w3.org/2000/svg"
   xmlns="http://www.w3.org/2000/svg"
   xmlns:sodipodi="http://sodipodi.sourceforge.net/DTD/sodipodi-0.dtd"
   xmlns:inkscape="http://www.inkscape.org/namespaces/inkscape"
   width="9.06667in"
   height="5.14667in"
   viewBox="0 0 2720 1544"
   version="1.1"
   id="svg3754"
   sodipodi:docname="simple_path_color.svg"
   inkscape:version="0.92.2 5c3e80d, 2017-08-06">
  <metadata
     id="metadata3760">
    <rdf:RDF>
      <cc:Work
         rdf:about="">
        <dc:format>image/svg+xml</dc:format>
        <dc:type
           rdf:resource="http://purl.org/dc/dcmitype/StillImage" />
        <dc:title></dc:title>
      </cc:Work>
    </rdf:RDF>
  </metadata>
  <defs
     id="defs3758" />
  <sodipodi:namedview
     pagecolor="#ffffff"
     bordercolor="#666666"
     borderopacity="1"
     objecttolerance="10"
     gridtolerance="10"
     guidetolerance="10"
     inkscape:pageopacity="0"
     inkscape:pageshadow="2"
     inkscape:window-width="1445"
     inkscape:window-height="858"
     id="namedview3756"
     showgrid="false"
     inkscape:zoom="0.64969195"
     inkscape:cx="449.65743"
     inkscape:cy="155.53612"
     inkscape:window-x="0"
     inkscape:window-y="0"
     inkscape:window-maximized="0"
     inkscape:current-layer="svg3754" />
  <path
     style="fill:#ff7a00;fill-opacity:1;stroke:#000000;stroke-width:1"
     d="m 146.00212,1077.0014 c -12.28161,44.2831 -33.37848,77.8648 -44.38534,119.7025 -10.995511,31.0666 0.75445,62.0332 14.85044,89.6052 23.13154,35.6785 66.70639,82.0703 114.33165,73.7185 77.93365,21.1401 155.31254,-19.4663 233.2961,-26.5853 50.10256,-8.6 84.36961,-26.5784 127.2293,-37.9286 62.40669,-8.763 13.1324,68.4244 38.5572,99.0831 23.35586,63.5458 98.2322,83.8649 161.12151,92.9146 59.34781,10.2341 124.38846,-10.7594 163.71453,-57.6721 41.08707,-55.5653 65.28169,-122.8634 79.72409,-189.5263 93.3532,27.0507 203.8051,40.6799 296.5574,33.6853 41.6043,0.2578 87.3022,-3.3063 126.8737,-15.3869 27.4003,51.8032 39.3181,139.636 110.1257,144.5311 29.0556,-3.4772 56.0626,11.6079 92.9992,1.7579 38.9724,0.1075 80.7558,-3.5895 101.5808,-27.8992 61.0052,-44.1891 57.8978,-124.3881 48.4191,-191.0033 33.9523,-9.8111 52.3019,-13.3257 91.268,-29.381 74.5952,-23.9602 150.1347,5.4049 212.381,44.042 67.7015,31.1407 141.9924,45.6854 215.534,55.6409 38.0612,-2.5556 68.494,11.7601 111.8226,7.2493 53.1819,-5.0426 113.8377,-12.2338 154.1686,-49.1699 8.9296,-5.3688 43.194,-52.9081 30.4225,-85.547 -19.8108,-35.8345 -32.6526,-60.459 -70.1123,-73.9889 -84.3581,-19.0362 -175.6552,-8.9242 -256.7069,-45.1818 -79.4231,-23.96266 -151.1378,-61.99683 -215.5171,-111.9508 -34.2567,-51.95666 -62.4355,-113.93769 -90.5816,-172.46719 -81.9113,-145.44213 -169.5366,-241.56594 -255.9,-288.2774 -85.989,-52.82343 -265.4269,-115.37369 -328.4042,-127.53527 -25.0074,0.63435 -35.7717,-0.46288 -75.903,9.64333 -119.0041,49.07336 -334.24734,135.88827 -366.52888,174.46669 -87.59289,92.42722 -243.51555,235.83778 -256.25945,280.0305 -36.28092,45.47594 -62.43797,116.84597 -126.6784,134.05143 -51.12835,19.55614 -109.55235,10.99249 -162.99429,21.42945 -49.66309,2.50525 -101.84875,2.31832 -143.12302,26.51615 -32.3272,7.61634 -73.67105,40.54144 -95.47549,72.43401 -16.78274,17.1538 -22.06664,31.4482 -35.91002,48.999"
     id="path3883"
     inkscape:connector-curvature="0"
     sodipodi:nodetypes="cccccccccccccccccccccccccccccccccccc" />
  <path
     style="fill:#22ecff;fill-opacity:1;stroke:#000000;stroke-width:1"
     d="m 1711.9986,61.852994 c 28.8142,-9.325424 57.2338,13.917557 67.7994,39.459806 31.283,47.33705 50.3449,101.58022 63.7475,156.36668 6.2603,25.71976 5.531,52.34217 7.874,78.35877 0.4892,28.43211 -30.2707,30.04594 -47.5813,43.44969 -27.2809,20.10789 -54.366,40.44279 -82.9282,58.7313 -18.2187,10.66519 -36.4348,35.37732 -55.5034,13.65507 -16.5043,-11.38271 -34.3292,-20.87004 -52.078,-29.79535 -33.9342,-24.02465 -77.7773,-23.29082 -114.8686,-39.97829 -21.8391,-6.59441 -58.3293,2.77812 -67.7815,-23.66485 -5.6091,-24.61233 6.1142,-49.36376 1.2065,-74.13206 -0.9794,-26.64618 -3.6723,-53.23638 -3.3531,-79.92335 17.872,-24.8948 36.9438,-49.83485 62.4707,-67.38097 25.1214,-30.32945 62.6115,-48.098278 99.9934,-57.999832 23.6986,-9.88918 115.3201,-11.443814 121.0026,-17.146614 z"
     id="path3877"
     inkscape:connector-curvature="0"
     sodipodi:nodetypes="ccccccccccccccc" />
  <path
     style="fill:#22ecff;fill-opacity:1;stroke:#000000;stroke-width:1"
     d="m 1084.0021,78.857379 c 51.047,1.944338 105.2054,7.644679 149.0423,26.381471 41.0003,16.46518 83.5154,36.81905 110.0984,73.47593 9.0365,21.42324 -8.743,42.17439 -6.8313,64.83896 -0.031,22.48448 -9.3662,41.81965 -8.718,66.5509 -7.9288,21.34998 3.92,54.47953 -18.6972,67.274 -30.2417,9.19166 -56.6266,27.08465 -85.8974,38.4292 -35.7197,19.26023 -69.4794,41.84059 -105.1734,61.17387 -18.2904,7.80188 -25.6953,32.67467 -48.0684,32.34862 -27.7857,-1.71252 -44.1689,-29.35287 -55.1217,-51.80736 -14.5642,-15.86627 -33.2183,-28.01457 -42.48773,-47.71955 -9.23243,-14.02668 -27.39104,-22.50817 -30.20286,-41.46468 -10.0307,-36.00624 4.10993,-72.98363 13.62033,-107.58024 11.07351,-17.86687 20.6248,-36.9654 25.42815,-57.46723 11.33685,-30.97629 35.77621,-54.25231 51.41101,-82.76088 12.796,-17.84656 29.6387,-37.803164 51.5978,-41.673011 z"
     id="path3873"
     inkscape:connector-curvature="0"
     sodipodi:nodetypes="cccccccccccccccc" />
  <path
     style="fill:#22ecff;stroke:#000000;stroke-width:1;fill-opacity:1"
     d="m 728.99742,355.0474 c 37.11812,0.36815 74.39065,5.82217 110.01365,16.07805 33.79025,12.38604 69.16328,27.88067 90.98721,57.87213 6.95446,35.16768 14.10634,70.37858 21.56631,105.37915 4.29347,15.96973 17.22425,35.84764 4.34462,50.9506 -15.80121,8.46191 -28.0921,21.76452 -41.35858,33.93535 -19.9534,18.44415 -37.03759,39.56329 -54.98704,59.87949 -12.50431,15.55317 -24.82172,31.36179 -38.89857,45.36909 -8.33323,14.38433 -23.13614,35.65188 -41.67254,22.4883 -20.96779,-6.91642 -39.34789,-20.86379 -61.00754,-25.37926 -25.41895,-11.47443 -60.00327,-9.19187 -76.55489,-35.36643 -24.53196,-53.16546 -37.64273,-111.65264 -38.987,-170.18893 5.2472,-25.92037 4.80443,-53.65468 18.03549,-77.34354 9.16089,-24.63757 13.25371,-57.47123 40.68289,-68.83713 21.73098,-8.7386 45.08825,-10.30508 67.83599,-14.83687 z"
     id="path3865"
     inkscape:connector-curvature="0" />
  <path
     style="fill:#22ecff;fill-opacity:1;stroke:#000000;stroke-width:1"
     d="m 2115.9591,433.33039 c 16.8411,8.25323 33.9087,16.40978 50.1118,25.63118 16.1689,15.66333 7.7376,40.38472 3.7824,59.40739 -4.1464,20.90561 -8.3571,41.93171 -17.993,61.18008 -13.6737,29.95038 -32.7075,57.13336 -53.6713,82.39851 -30.2192,26.35343 -72.6132,17.57324 -109.0749,23.47044 -17.5704,2.66451 -34.6855,9.19682 -52.7132,6.96226 -17.4271,1.16693 -34.0997,13.31384 -51.7221,7.86817 -13.0424,-11.05329 -23.2749,-25.79124 -31.6958,-40.9437 -12.6171,-23.77513 -27.0525,-46.39867 -42.9429,-68.11811 -11.6762,-19.62541 -32.6962,-31.3272 -46.9388,-48.6749 6.0149,-17.63024 29.161,-24.136 39.1523,-40.18643 24.4762,-26.14347 46.7415,-54.28792 71.7965,-79.89988 11.5562,-22.5176 40.0396,-21.27975 61.6703,-23.47896 56.3142,-15.95995 135.0804,12.30625 180.2387,34.38395 z"
     id="path3861"
     inkscape:connector-curvature="0"
     sodipodi:nodetypes="ccccccccccccccc" />
  <path
     style="fill:#000000;stroke:#000000;stroke-width:0.32000017;fill-opacity:1"
     d="m 97.914062,339.66797 c -0.1864,-0.005 -0.377274,0.0322 -0.546874,0.125 -1.084801,0.3328 -0.85266,1.84228 -1.25586,2.73828 -0.718441,2.87445 -3.646966,5.88185 -5.230469,7.54883 -1.780162,1.63153 -5.856643,4.85401 -8.640625,6.40039 -1.456,-0.003 -2.16913,0.0735 -3.519531,-0.61133 -0.784,-0.4 -2.140899,-1.51969 -3.0625,-0.96289 -0.7264,0.4672 -0.5952,1.43289 0,1.99609 0.822401,0.8352 3.141796,1.74069 4.341797,1.80469 3.561602,0.1856 5.866277,-2.2716 8.455078,-4.31641 l 1.650391,-1.04687 c 2.169601,-1.5904 6.82519,-6.64584 7.90039,-9.02344 0.428801,-0.9536 1.555382,-3.68894 0.425782,-4.52734 -0.1504,-0.0736 -0.331178,-0.1202 -0.517579,-0.125 z"
     transform="scale(3.1249983)"
     id="path3835"
     inkscape:connector-curvature="0"
     sodipodi:nodetypes="cccccccccccccc" />
  <path
     style="fill:#ff7a00;stroke-width:0.38479775;stroke:none;stroke-opacity:0;fill-opacity:0"
     d="m 255.70204,476.09782 c -0.5291,-0.0985 -3.54659,-0.61079 -6.70555,-1.13845 -17.77384,-2.96887 -30.46826,-8.21677 -38.44635,-15.89382 -3.44321,-3.31328 -5.38296,-6.08524 -8.38079,-11.97642 l -2.44765,-4.80997 0.0161,-5.77197 c 0.009,-3.17458 0.0937,-8.19619 0.18853,-11.15913 0.19446,-6.07551 -0.11601,-7.52331 -2.01055,-9.37557 -1.45581,-1.42332 -4.25244,-2.14894 -7.19393,-1.86654 -2.32268,0.22298 -8.21664,2.02711 -20.85599,6.38396 -10.19907,3.51568 -16.5966,5.13206 -25.17798,6.36142 -6.76228,0.96876 -12.86502,2.24436 -27.69198,5.78824 -13.27954,3.17403 -18.071723,3.84556 -27.526492,3.85733 -6.767754,0.008 -8.868307,-0.12329 -11.543933,-0.72385 -2.147975,-0.48212 -4.459632,-0.70695 -6.73396,-0.65496 -6.052294,0.13837 -12.328591,-2.16151 -18.371478,-6.73206 -3.368412,-2.5477 -8.852388,-8.17842 -11.955349,-12.27526 -6.043712,-7.97951 -10.084514,-19.75352 -9.301841,-27.10352 0.37903,-3.55943 2.832421,-11.62802 5.566722,-18.30757 6.558739,-16.02215 8.106243,-19.9426 8.888645,-22.51849 0.665368,-2.19058 1.772349,-4.15767 5.061475,-8.99419 2.315417,-3.40472 5.022556,-7.14277 6.015864,-8.30679 0.993307,-1.16401 2.696385,-3.24962 3.784617,-4.63468 2.736005,-3.48228 9.723027,-10.11832 13.457882,-12.78182 3.721502,-2.65399 9.44545,-5.70885 12.634973,-6.74327 1.272464,-0.41269 3.523531,-1.355 5.00237,-2.09403 8.165535,-4.08062 17.726685,-5.84184 36.166205,-6.66202 2.96294,-0.13179 7.72481,-0.56675 10.58193,-0.96658 2.85713,-0.39984 9.87007,-0.99023 15.58431,-1.31199 18.76578,-1.05666 22.43865,-1.60876 32.51541,-4.88764 7.36754,-2.39733 11.07833,-4.56015 16.20511,-9.44509 4.61926,-4.40137 7.38972,-8.00183 14.89059,-19.35167 3.70648,-5.60843 7.40738,-11.08358 8.2242,-12.16701 0.81683,-1.08343 1.83307,-2.98818 2.25831,-4.23278 3.01325,-8.8192 9.67718,-9.77847 22.23386,-3.20056 2.39844,1.25644 4.49766,2.28445 4.66492,2.28445 0.16726,0 2.99821,-3.34282 6.29099,-7.42849 6.72122,-8.33966 14.86607,-17.92487 19.76651,-23.26208 1.79894,-1.95928 4.06567,-4.64324 5.03717,-5.96436 2.49116,-3.38767 5.10691,-5.80627 12.59689,-11.64752 7.11372,-5.5478 10.39818,-8.71821 11.72385,-11.31674 1.00652,-1.97295 0.95844,-2.37086 -0.92412,-7.64725 -2.11748,-5.93482 -2.91138,-9.44116 -2.91138,-12.85834 0,-3.41971 0.266,-4.1389 2.257,-6.10236 0.76922,-0.75857 2.11602,-2.17419 2.9929,-3.1458 3.32331,-3.68239 7.10138,-4.4138 11.28397,-2.18451 2.53904,1.3533 7.11808,5.86305 10.01879,9.86721 1.5882,2.19236 1.89391,2.42288 3.73034,2.81295 2.58323,0.54868 5.53077,0.0225 8.74921,-1.56196 2.1934,-1.07981 4.35709,-2.67767 14.19694,-10.48426 4.053,-3.21552 7.05769,-5.04974 9.63861,-5.88392 1.08386,-0.35032 3.52909,-1.6344 5.43384,-2.85353 5.1938,-3.32426 10.02819,-5.89989 22.12534,-11.78775 l 10.9662,-5.33741 40.07167,-0.10143 40.07169,-0.10142 5.91218,2.08508 c 3.2517,1.14679 8.94247,3.2031 12.64615,4.56958 3.70368,1.36648 8.20581,2.96502 10.00474,3.55233 2.46405,0.80444 3.77744,1.50566 5.32491,2.843 13.16189,11.37445 20.84472,11.97404 30.9437,2.41491 l 3.82474,-3.62029 2.95424,0.17102 c 4.3533,0.252 8.14205,2.15896 12.0015,6.04059 4.056,4.07926 5.4991,7.45489 4.6056,10.77309 -0.59355,2.20421 -2.65837,4.1453 -6.36709,5.98557 -3.22707,1.60126 -6.03317,3.88543 -6.94902,5.65647 -0.30119,0.58247 -0.54765,2.03816 -0.54765,3.23485 0,3.4934 1.73836,6.42347 7.97782,13.44672 6.73161,7.57728 14.27146,17.79704 19.1627,25.97385 0.82293,1.37565 1.89078,2.81526 2.37308,3.19915 0.48227,0.38388 1.91626,2.86132 3.18663,5.50541 3.74855,7.8022 5.1616,9.38093 8.39629,9.38093 1.02706,0 1.97412,-0.33877 3.0013,-1.07358 1.19857,-0.85743 2.38217,-1.21228 5.87887,-1.76253 2.40798,-0.37893 4.61576,-0.78014 4.90617,-0.89158 0.44633,-0.17128 0.52802,10.84737 0.52802,71.21853 v 71.42115 h -0.99001 c -1.74633,0 -7.54273,1.59519 -11.90072,3.27513 -5.40768,2.08458 -12.2672,4.29393 -19.81708,6.3828 -3.2804,0.90761 -6.03201,1.69873 -6.11467,1.75805 -0.0827,0.0593 0.1732,2.75306 0.56854,5.98607 0.97627,7.98324 0.9947,21.99823 0.0358,27.23449 -1.39182,7.60062 -3.71026,13.59572 -7.22266,18.6766 -1.95115,2.82241 -7.38819,8.32368 -11.29412,11.42748 -5.125,4.07254 -11.5644,5.84101 -23.49544,6.45264 -3.8095,0.19529 -7.85907,0.5347 -8.99907,0.75426 -3.21899,0.61996 -9.35594,0.47337 -15.25427,-0.36438 -2.95686,-0.41997 -7.19426,-0.76885 -9.41646,-0.77529 -8.29467,-0.024 -13.98232,-2.59381 -19.29542,-8.71799 -3.98646,-4.595 -6.73323,-9.88489 -12.25696,-23.60535 -3.30526,-8.20994 -5.4704,-13.20911 -5.9659,-13.77488 -0.0552,-0.063 -1.80925,0.32548 -3.89789,0.86331 -9.71607,2.50187 -18.34758,3.45966 -36.89018,4.09348 -15.07726,0.51537 -28.99369,0.29784 -39.05697,-0.6105 -17.01584,-1.53589 -35.25718,-4.74096 -50.71398,-8.91063 -2.8135,-0.75898 -5.19284,-1.30258 -5.28743,-1.20799 -0.0946,0.0946 -1.02736,3.53574 -2.07284,7.64701 -4.75216,18.68764 -11.48219,34.69693 -19.96564,47.49399 -8.24137,12.4319 -18.63993,19.6086 -33.55142,23.15592 -3.4032,0.8096 -5.19336,0.98174 -11.35153,1.09153 -4.02114,0.0717 -7.74405,0.0498 -8.27315,-0.0487 z M 83.220098,358.37633 c 4.013544,-1.67696 12.97872,-9.91484 14.825464,-13.62275 1.058548,-2.12536 1.380712,-4.76938 0.637125,-5.22894 -0.842222,-0.52052 -2.272065,0.2035 -2.508012,1.26998 -0.546986,2.47236 -1.043529,3.5003 -2.855514,5.91145 -1.937923,2.57873 -5.308828,5.54748 -9.306061,8.19582 -2.442784,1.61845 -3.447457,1.63083 -6.175215,0.0761 -1.12289,-0.64 -1.582496,-0.72502 -2.116387,-0.3915 -1.587564,0.99174 -0.913395,2.51136 1.626786,3.66687 1.894952,0.86199 3.997652,0.90602 5.871814,0.12294 z"
     id="path4725"
     inkscape:connector-curvature="0"
     transform="scale(3.1249983)" />
  <path
     style="fill:#ff7a00;fill-opacity:0;stroke:none;stroke-width:0.38479775;stroke-opacity:0"
     d="m 255.70204,476.09782 c -0.5291,-0.0985 -3.54659,-0.61079 -6.70555,-1.13845 -17.77384,-2.96887 -30.46826,-8.21677 -38.44635,-15.89382 -3.44321,-3.31328 -5.38296,-6.08524 -8.38079,-11.97642 l -2.44765,-4.80997 0.0161,-5.77197 c 0.009,-3.17458 0.0937,-8.19619 0.18853,-11.15913 0.19446,-6.07551 -0.11601,-7.52331 -2.01055,-9.37557 -1.45581,-1.42332 -4.25244,-2.14894 -7.19393,-1.86654 -2.32268,0.22298 -8.21664,2.02711 -20.85599,6.38396 -10.19907,3.51568 -16.5966,5.13206 -25.17798,6.36142 -6.76228,0.96876 -12.86502,2.24436 -27.69198,5.78824 -13.27954,3.17403 -18.071723,3.84556 -27.526492,3.85733 -6.767754,0.008 -8.868307,-0.12329 -11.543933,-0.72385 -2.147975,-0.48212 -4.459632,-0.70695 -6.73396,-0.65496 -6.052294,0.13837 -12.328591,-2.16151 -18.371478,-6.73206 -3.368412,-2.5477 -8.852388,-8.17842 -11.955349,-12.27526 -6.043712,-7.97951 -10.084514,-19.75352 -9.301841,-27.10352 0.37903,-3.55943 2.832421,-11.62802 5.566722,-18.30757 6.558739,-16.02215 8.106243,-19.9426 8.888645,-22.51849 0.665368,-2.19058 1.772349,-4.15767 5.061475,-8.99419 2.315417,-3.40472 5.022556,-7.14277 6.015864,-8.30679 0.993307,-1.16401 2.696385,-3.24962 3.784617,-4.63468 2.736005,-3.48228 9.723027,-10.11832 13.457882,-12.78182 3.721502,-2.65399 9.44545,-5.70885 12.634973,-6.74327 1.272464,-0.41269 3.523531,-1.355 5.00237,-2.09403 8.165535,-4.08062 17.726685,-5.84184 36.166205,-6.66202 2.96294,-0.13179 7.72481,-0.56675 10.58193,-0.96658 2.85713,-0.39984 9.87007,-0.99023 15.58431,-1.31199 18.76578,-1.05666 22.43865,-1.60876 32.51541,-4.88764 7.36754,-2.39733 11.07833,-4.56015 16.20511,-9.44509 4.61926,-4.40137 7.38972,-8.00183 14.89059,-19.35167 3.70648,-5.60843 7.40738,-11.08358 8.2242,-12.16701 0.81683,-1.08343 1.83307,-2.98818 2.25831,-4.23278 3.01325,-8.8192 9.67718,-9.77847 22.23386,-3.20056 2.39844,1.25644 4.49766,2.28445 4.66492,2.28445 0.16726,0 2.99821,-3.34282 6.29099,-7.42849 6.72122,-8.33966 14.86607,-17.92487 19.76651,-23.26208 1.79894,-1.95928 4.06567,-4.64324 5.03717,-5.96436 2.49116,-3.38767 5.10691,-5.80627 12.59689,-11.64752 7.11372,-5.5478 10.39818,-8.71821 11.72385,-11.31674 1.00652,-1.97295 0.95844,-2.37086 -0.92412,-7.64725 -2.11748,-5.93482 -2.91138,-9.44116 -2.91138,-12.85834 0,-3.41971 0.266,-4.1389 2.257,-6.10236 0.76922,-0.75857 2.11602,-2.17419 2.9929,-3.1458 3.32331,-3.68239 7.10138,-4.4138 11.28397,-2.18451 2.53904,1.3533 7.11808,5.86305 10.01879,9.86721 1.5882,2.19236 1.89391,2.42288 3.73034,2.81295 2.58323,0.54868 5.53077,0.0225 8.74921,-1.56196 2.1934,-1.07981 4.35709,-2.67767 14.19694,-10.48426 4.053,-3.21552 7.05769,-5.04974 9.63861,-5.88392 1.08386,-0.35032 3.52909,-1.6344 5.43384,-2.85353 5.1938,-3.32426 10.02819,-5.89989 22.12534,-11.78775 l 10.9662,-5.33741 40.07167,-0.10143 40.07169,-0.10142 5.91218,2.08508 c 3.2517,1.14679 8.94247,3.2031 12.64615,4.56958 3.70368,1.36648 8.20581,2.96502 10.00474,3.55233 2.46405,0.80444 3.77744,1.50566 5.32491,2.843 13.16189,11.37445 20.84472,11.97404 30.9437,2.41491 l 3.82474,-3.62029 2.95424,0.17102 c 4.3533,0.252 8.14205,2.15896 12.0015,6.04059 4.056,4.07926 5.4991,7.45489 4.6056,10.77309 -0.59355,2.20421 -2.65837,4.1453 -6.36709,5.98557 -3.22707,1.60126 -6.03317,3.88543 -6.94902,5.65647 -0.30119,0.58247 -0.54765,2.03816 -0.54765,3.23485 0,3.4934 1.73836,6.42347 7.97782,13.44672 6.73161,7.57728 14.27146,17.79704 19.1627,25.97385 0.82293,1.37565 1.89078,2.81526 2.37308,3.19915 0.48227,0.38388 1.91626,2.86132 3.18663,5.50541 3.74855,7.8022 5.1616,9.38093 8.39629,9.38093 1.02706,0 1.97412,-0.33877 3.0013,-1.07358 1.19857,-0.85743 2.38217,-1.21228 5.87887,-1.76253 2.40798,-0.37893 4.61576,-0.78014 4.90617,-0.89158 0.44633,-0.17128 0.52802,10.84737 0.52802,71.21853 v 71.42115 h -0.99001 c -1.74633,0 -7.54273,1.59519 -11.90072,3.27513 -5.40768,2.08458 -12.2672,4.29393 -19.81708,6.3828 -3.2804,0.90761 -6.03201,1.69873 -6.11467,1.75805 -0.0827,0.0593 0.1732,2.75306 0.56854,5.98607 0.97627,7.98324 0.9947,21.99823 0.0358,27.23449 -1.39182,7.60062 -3.71026,13.59572 -7.22266,18.6766 -1.95115,2.82241 -7.38819,8.32368 -11.29412,11.42748 -5.125,4.07254 -11.5644,5.84101 -23.49544,6.45264 -3.8095,0.19529 -7.85907,0.5347 -8.99907,0.75426 -3.21899,0.61996 -9.35594,0.47337 -15.25427,-0.36438 -2.95686,-0.41997 -7.19426,-0.76885 -9.41646,-0.77529 -8.29467,-0.024 -13.98232,-2.59381 -19.29542,-8.71799 -3.98646,-4.595 -6.73323,-9.88489 -12.25696,-23.60535 -3.30526,-8.20994 -5.4704,-13.20911 -5.9659,-13.77488 -0.0552,-0.063 -1.80925,0.32548 -3.89789,0.86331 -9.71607,2.50187 -18.34758,3.45966 -36.89018,4.09348 -15.07726,0.51537 -28.99369,0.29784 -39.05697,-0.6105 -17.01584,-1.53589 -35.25718,-4.74096 -50.71398,-8.91063 -2.8135,-0.75898 -5.19284,-1.30258 -5.28743,-1.20799 -0.0946,0.0946 -1.02736,3.53574 -2.07284,7.64701 -4.75216,18.68764 -11.48219,34.69693 -19.96564,47.49399 -8.24137,12.4319 -18.63993,19.6086 -33.55142,23.15592 -3.4032,0.8096 -5.19336,0.98174 -11.35153,1.09153 -4.02114,0.0717 -7.74405,0.0498 -8.27315,-0.0487 z M 83.220098,358.37633 c 4.013544,-1.67696 12.97872,-9.91484 14.825464,-13.62275 1.058548,-2.12536 1.380712,-4.76938 0.637125,-5.22894 -0.842222,-0.52052 -2.272065,0.2035 -2.508012,1.26998 -0.546986,2.47236 -1.043529,3.5003 -2.855514,5.91145 -1.937923,2.57873 -5.308828,5.54748 -9.306061,8.19582 -2.442784,1.61845 -3.447457,1.63083 -6.175215,0.0761 -1.12289,-0.64 -1.582496,-0.72502 -2.116387,-0.3915 -1.587564,0.99174 -0.913395,2.51136 1.626786,3.66687 1.894952,0.86199 3.997652,0.90602 5.871814,0.12294 z"
     id="path4735"
     inkscape:connector-curvature="0"
     transform="scale(3.1249983)" />
  <path
     style="fill:#ff7a00;fill-opacity:0;stroke:none;stroke-width:0.38479775;stroke-opacity:0"
     d="m 255.70204,476.09782 c -0.5291,-0.0985 -3.54659,-0.61079 -6.70555,-1.13845 -17.77384,-2.96887 -30.46826,-8.21677 -38.44635,-15.89382 -3.44321,-3.31328 -5.38296,-6.08524 -8.38079,-11.97642 l -2.44765,-4.80997 0.0161,-5.77197 c 0.009,-3.17458 0.0937,-8.19619 0.18853,-11.15913 0.19446,-6.07551 -0.11601,-7.52331 -2.01055,-9.37557 -1.45581,-1.42332 -4.25244,-2.14894 -7.19393,-1.86654 -2.32268,0.22298 -8.21664,2.02711 -20.85599,6.38396 -10.19907,3.51568 -16.5966,5.13206 -25.17798,6.36142 -6.76228,0.96876 -12.86502,2.24436 -27.69198,5.78824 -13.27954,3.17403 -18.071723,3.84556 -27.526492,3.85733 -6.767754,0.008 -8.868307,-0.12329 -11.543933,-0.72385 -2.147975,-0.48212 -4.459632,-0.70695 -6.73396,-0.65496 -6.052294,0.13837 -12.328591,-2.16151 -18.371478,-6.73206 -3.368412,-2.5477 -8.852388,-8.17842 -11.955349,-12.27526 -6.043712,-7.97951 -10.084514,-19.75352 -9.301841,-27.10352 0.37903,-3.55943 2.832421,-11.62802 5.566722,-18.30757 6.558739,-16.02215 8.106243,-19.9426 8.888645,-22.51849 0.665368,-2.19058 1.772349,-4.15767 5.061475,-8.99419 2.315417,-3.40472 5.022556,-7.14277 6.015864,-8.30679 0.993307,-1.16401 2.696385,-3.24962 3.784617,-4.63468 2.736005,-3.48228 9.723027,-10.11832 13.457882,-12.78182 3.721502,-2.65399 9.44545,-5.70885 12.634973,-6.74327 1.272464,-0.41269 3.523531,-1.355 5.00237,-2.09403 8.165535,-4.08062 17.726685,-5.84184 36.166205,-6.66202 2.96294,-0.13179 7.72481,-0.56675 10.58193,-0.96658 2.85713,-0.39984 9.87007,-0.99023 15.58431,-1.31199 18.76578,-1.05666 22.43865,-1.60876 32.51541,-4.88764 7.36754,-2.39733 11.07833,-4.56015 16.20511,-9.44509 4.61926,-4.40137 7.38972,-8.00183 14.89059,-19.35167 3.70648,-5.60843 7.40738,-11.08358 8.2242,-12.16701 0.81683,-1.08343 1.83307,-2.98818 2.25831,-4.23278 3.01325,-8.8192 9.67718,-9.77847 22.23386,-3.20056 2.39844,1.25644 4.49766,2.28445 4.66492,2.28445 0.16726,0 2.99821,-3.34282 6.29099,-7.42849 6.72122,-8.33966 14.86607,-17.92487 19.76651,-23.26208 1.79894,-1.95928 4.06567,-4.64324 5.03717,-5.96436 2.49116,-3.38767 5.10691,-5.80627 12.59689,-11.64752 7.11372,-5.5478 10.39818,-8.71821 11.72385,-11.31674 1.00652,-1.97295 0.95844,-2.37086 -0.92412,-7.64725 -2.11748,-5.93482 -2.91138,-9.44116 -2.91138,-12.85834 0,-3.41971 0.266,-4.1389 2.257,-6.10236 0.76922,-0.75857 2.11602,-2.17419 2.9929,-3.1458 3.32331,-3.68239 7.10138,-4.4138 11.28397,-2.18451 2.53904,1.3533 7.11808,5.86305 10.01879,9.86721 1.5882,2.19236 1.89391,2.42288 3.73034,2.81295 2.58323,0.54868 5.53077,0.0225 8.74921,-1.56196 2.1934,-1.07981 4.35709,-2.67767 14.19694,-10.48426 4.053,-3.21552 7.05769,-5.04974 9.63861,-5.88392 1.08386,-0.35032 3.52909,-1.6344 5.43384,-2.85353 5.1938,-3.32426 10.02819,-5.89989 22.12534,-11.78775 l 10.9662,-5.33741 40.07167,-0.10143 40.07169,-0.10142 5.91218,2.08508 c 3.2517,1.14679 8.94247,3.2031 12.64615,4.56958 3.70368,1.36648 8.20581,2.96502 10.00474,3.55233 2.46405,0.80444 3.77744,1.50566 5.32491,2.843 13.16189,11.37445 20.84472,11.97404 30.9437,2.41491 l 3.82474,-3.62029 2.95424,0.17102 c 4.3533,0.252 8.14205,2.15896 12.0015,6.04059 4.056,4.07926 5.4991,7.45489 4.6056,10.77309 -0.59355,2.20421 -2.65837,4.1453 -6.36709,5.98557 -3.22707,1.60126 -6.03317,3.88543 -6.94902,5.65647 -0.30119,0.58247 -0.54765,2.03816 -0.54765,3.23485 0,3.4934 1.73836,6.42347 7.97782,13.44672 6.73161,7.57728 14.27146,17.79704 19.1627,25.97385 0.82293,1.37565 1.89078,2.81526 2.37308,3.19915 0.48227,0.38388 1.91626,2.86132 3.18663,5.50541 3.74855,7.8022 5.1616,9.38093 8.39629,9.38093 1.02706,0 1.97412,-0.33877 3.0013,-1.07358 1.19857,-0.85743 2.38217,-1.21228 5.87887,-1.76253 2.40798,-0.37893 4.61576,-0.78014 4.90617,-0.89158 0.44633,-0.17128 0.52802,10.84737 0.52802,71.21853 v 71.42115 h -0.99001 c -1.74633,0 -7.54273,1.59519 -11.90072,3.27513 -5.40768,2.08458 -12.2672,4.29393 -19.81708,6.3828 -3.2804,0.90761 -6.03201,1.69873 -6.11467,1.75805 -0.0827,0.0593 0.1732,2.75306 0.56854,5.98607 0.97627,7.98324 0.9947,21.99823 0.0358,27.23449 -1.39182,7.60062 -3.71026,13.59572 -7.22266,18.6766 -1.95115,2.82241 -7.38819,8.32368 -11.29412,11.42748 -5.125,4.07254 -11.5644,5.84101 -23.49544,6.45264 -3.8095,0.19529 -7.85907,0.5347 -8.99907,0.75426 -3.21899,0.61996 -9.35594,0.47337 -15.25427,-0.36438 -2.95686,-0.41997 -7.19426,-0.76885 -9.41646,-0.77529 -8.29467,-0.024 -13.98232,-2.59381 -19.29542,-8.71799 -3.98646,-4.595 -6.73323,-9.88489 -12.25696,-23.60535 -3.30526,-8.20994 -5.4704,-13.20911 -5.9659,-13.77488 -0.0552,-0.063 -1.80925,0.32548 -3.89789,0.86331 -9.71607,2.50187 -18.34758,3.45966 -36.89018,4.09348 -15.07726,0.51537 -28.99369,0.29784 -39.05697,-0.6105 -17.01584,-1.53589 -35.25718,-4.74096 -50.71398,-8.91063 -2.8135,-0.75898 -5.19284,-1.30258 -5.28743,-1.20799 -0.0946,0.0946 -1.02736,3.53574 -2.07284,7.64701 -4.75216,18.68764 -11.48219,34.69693 -19.96564,47.49399 -8.24137,12.4319 -18.63993,19.6086 -33.55142,23.15592 -3.4032,0.8096 -5.19336,0.98174 -11.35153,1.09153 -4.02114,0.0717 -7.74405,0.0498 -8.27315,-0.0487 z M 83.220098,358.37633 c 4.013544,-1.67696 12.97872,-9.91484 14.825464,-13.62275 1.058548,-2.12536 1.380712,-4.76938 0.637125,-5.22894 -0.842222,-0.52052 -2.272065,0.2035 -2.508012,1.26998 -0.546986,2.47236 -1.043529,3.5003 -2.855514,5.91145 -1.937923,2.57873 -5.308828,5.54748 -9.306061,8.19582 -2.442784,1.61845 -3.447457,1.63083 -6.175215,0.0761 -1.12289,-0.64 -1.582496,-0.72502 -2.116387,-0.3915 -1.587564,0.99174 -0.913395,2.51136 1.626786,3.66687 1.894952,0.86199 3.997652,0.90602 5.871814,0.12294 z"
     id="path4737"
     inkscape:connector-curvature="0"
     transform="scale(3.1249983)" />
</svg>
