<?xml version="1.0" standalone="no"?>
<!DOCTYPE svg PUBLIC "-//W3C//DTD SVG 20010904//EN"
 "http://www.w3.org/TR/2001/REC-SVG-20010904/DTD/svg10.dtd">
<svg version="1.0" xmlns="http://www.w3.org/2000/svg"
 width="3872.000000pt" height="3872.000000pt" viewBox="0 0 3872.000000 3872.000000"
 preserveAspectRatio="xMidYMid meet">
<metadata>
Created by potrace 1.14, written by Peter Selinger 2001-2017
</metadata>
<g transform="translate(0.000000,3872.000000) scale(0.100000,-0.100000)"
fill="#000000" stroke="none">
<path d="M23992 31220 c-62 -42 -106 -82 -282 -254 -94 -92 -192 -179 -265
-234 -5 -5 -37 -24 -70 -43 -149 -86 -230 -108 -407 -107 -135 1 -223 -5 -313
-22 -27 -5 -61 -12 -75 -14 -72 -13 -105 -21 -215 -53 -227 -65 -424 -157
-619 -287 -162 -109 -243 -181 -391 -351 -39 -44 -84 -95 -102 -115 -17 -19
-42 -48 -54 -65 -13 -16 -26 -32 -29 -35 -36 -33 -334 -436 -362 -490 -7 -14
-23 -39 -35 -56 -13 -17 -23 -33 -23 -36 0 -3 -22 -43 -48 -89 -44 -77 -72
-133 -146 -290 -14 -31 -26 -59 -26 -63 0 -5 -6 -22 -14 -39 -36 -80 -96 -274
-112 -362 -3 -16 -9 -46 -13 -65 -4 -19 -9 -63 -10 -98 -2 -49 1 -63 13 -68
11 -4 16 -19 16 -43 0 -84 53 -211 135 -326 114 -161 141 -220 144 -322 l2
-62 -51 -26 c-140 -71 -470 -190 -870 -315 -74 -23 -146 -45 -160 -50 -14 -5
-72 -23 -130 -40 -58 -17 -139 -42 -180 -55 -142 -45 -180 -43 -180 12 0 13
16 79 35 146 33 111 64 245 79 337 26 155 27 425 3 510 -2 8 -7 29 -12 45 -12
45 -89 207 -131 278 -102 168 -232 327 -453 553 -141 144 -301 284 -324 284
-3 0 -28 13 -55 29 -27 16 -89 45 -139 64 -227 90 -459 130 -748 130 -140 0
-200 -4 -368 -28 -96 -14 -265 -60 -356 -97 -53 -22 -105 -42 -116 -45 -11 -3
-27 -11 -35 -17 -8 -7 -28 -18 -45 -26 -45 -22 -184 -108 -219 -136 -17 -13
-35 -28 -41 -32 -162 -119 -362 -344 -519 -587 -43 -66 -87 -132 -97 -147 -11
-15 -19 -30 -19 -33 0 -3 -24 -47 -53 -98 -30 -50 -79 -140 -110 -198 -30 -58
-81 -153 -113 -210 -31 -57 -64 -117 -72 -134 -62 -125 -223 -383 -311 -499
-80 -107 -197 -226 -301 -307 -114 -88 -417 -379 -500 -480 -19 -23 -42 -49
-50 -58 -73 -75 -200 -262 -262 -384 -42 -84 -103 -257 -112 -319 -16 -107
-20 -151 -19 -238 1 -105 12 -297 18 -328 2 -11 6 -35 9 -53 18 -109 46 -216
84 -330 30 -86 104 -270 147 -364 25 -54 94 -237 102 -270 23 -96 31 -221 19
-283 -30 -144 -128 -281 -317 -442 -35 -30 -73 -64 -85 -75 -24 -23 -187 -172
-217 -198 -12 -10 -57 -50 -101 -90 -106 -96 -111 -101 -202 -183 -104 -93
-264 -235 -349 -309 -37 -33 -73 -64 -79 -70 -63 -56 -111 -98 -161 -140 -32
-27 -66 -57 -75 -65 -8 -8 -58 -51 -110 -95 -52 -44 -97 -82 -100 -85 -3 -3
-88 -75 -190 -159 -102 -84 -196 -163 -210 -175 -14 -12 -99 -80 -190 -151
-91 -71 -170 -134 -176 -140 -7 -5 -24 -19 -40 -30 -15 -11 -41 -31 -58 -45
-48 -40 -426 -319 -536 -395 -55 -38 -106 -75 -113 -80 -30 -26 -593 -395
-603 -395 -3 0 -17 -8 -32 -19 -40 -27 -310 -194 -362 -223 -25 -14 -98 -55
-163 -92 -468 -266 -1153 -555 -1627 -687 -25 -7 -47 -13 -50 -14 -3 -1 -25
-7 -50 -14 -25 -7 -81 -29 -125 -51 -195 -92 -382 -159 -610 -217 -77 -19
-151 -37 -165 -39 -22 -4 -78 -15 -150 -29 -14 -3 -41 -8 -60 -11 -19 -3 -46
-7 -60 -9 -40 -7 -161 -24 -215 -30 -27 -3 -84 -10 -125 -15 -41 -5 -104 -12
-140 -15 -36 -4 -76 -8 -90 -10 -14 -2 -68 -7 -120 -10 -52 -4 -102 -8 -110
-10 -8 -2 -58 -6 -110 -10 -52 -3 -106 -8 -120 -10 -14 -2 -56 -6 -95 -10 -62
-5 -272 -28 -365 -40 -261 -32 -555 -93 -795 -165 -78 -23 -97 -28 -122 -34
-225 -51 -474 -148 -738 -285 -126 -66 -359 -195 -415 -230 -8 -6 -42 -24 -75
-42 -33 -17 -67 -38 -76 -45 -8 -8 -19 -14 -22 -14 -8 0 -124 -64 -295 -162
-242 -138 -517 -364 -692 -568 -12 -14 -31 -36 -43 -50 -12 -14 -35 -43 -51
-65 -17 -22 -32 -42 -36 -45 -16 -14 -116 -181 -179 -300 -40 -74 -79 -146
-87 -160 -13 -22 -194 -389 -229 -465 -8 -16 -48 -115 -89 -220 -41 -104 -84
-212 -97 -240 -13 -27 -24 -52 -24 -55 -1 -3 -8 -21 -17 -40 -8 -19 -39 -89
-67 -155 -29 -66 -56 -129 -61 -140 -52 -114 -118 -362 -138 -515 -11 -88 -7
-486 7 -595 36 -290 112 -591 208 -825 20 -46 55 -143 80 -215 157 -455 269
-629 537 -829 298 -224 665 -377 1151 -482 11 -2 36 -7 55 -10 19 -3 38 -8 41
-10 3 -1 37 -8 75 -14 76 -12 106 -17 144 -25 90 -18 511 -72 635 -81 177 -14
660 -6 725 11 8 2 44 6 80 10 36 3 75 7 85 9 11 2 56 9 100 16 95 14 275 50
400 81 50 11 95 22 100 23 6 1 37 10 70 20 33 10 98 30 145 43 165 49 491 159
557 189 17 8 34 14 37 14 4 0 108 41 233 90 124 50 227 89 228 88 2 -2 6 -43
9 -93 4 -49 9 -108 11 -130 3 -22 7 -71 10 -110 2 -38 6 -79 9 -90 2 -11 7
-42 10 -68 8 -51 12 -75 21 -117 3 -14 7 -34 9 -45 40 -199 103 -346 230 -535
110 -164 257 -304 443 -419 78 -48 103 -61 238 -119 141 -61 413 -133 590
-156 22 -3 58 -8 80 -11 22 -2 63 -7 90 -10 28 -3 66 -7 85 -10 82 -9 140 -15
220 -20 47 -3 101 -8 120 -10 19 -2 82 -7 140 -11 58 -3 113 -8 123 -10 22 -4
175 -15 267 -19 344 -15 438 -18 590 -18 156 -1 434 9 515 17 17 2 64 7 105
10 41 4 156 23 255 43 208 40 183 35 305 63 52 12 102 23 110 25 70 14 419
106 560 146 1109 320 2021 771 2745 1357 192 156 282 238 459 421 328 338 420
416 581 496 174 86 304 114 500 110 72 -2 145 -6 163 -9 17 -3 46 -8 62 -11
70 -12 101 -18 215 -45 123 -29 340 -74 407 -84 21 -3 57 -10 80 -15 24 -5 63
-12 88 -15 25 -3 56 -8 70 -11 14 -3 45 -8 70 -11 25 -3 52 -7 60 -9 18 -5 31
-7 210 -34 74 -12 147 -23 163 -26 15 -3 39 -7 55 -10 15 -2 38 -7 52 -9 14
-3 41 -7 60 -10 19 -3 82 -15 140 -26 58 -12 118 -24 134 -27 60 -10 315 -75
409 -104 l97 -30 -57 -48 c-167 -138 -294 -332 -372 -567 -29 -88 -59 -195
-68 -244 -2 -14 -15 -74 -28 -135 -34 -157 -39 -212 -39 -375 1 -156 5 -205
34 -345 18 -88 74 -270 108 -350 58 -140 216 -415 281 -489 22 -25 127 -108
231 -183 161 -114 394 -244 580 -323 41 -17 84 -35 95 -41 40 -19 293 -101
400 -129 105 -28 321 -74 395 -84 61 -8 114 -16 135 -21 11 -2 56 -7 100 -10
44 -4 89 -9 100 -11 121 -24 991 -23 1085 1 8 2 60 6 115 10 55 3 107 8 115
10 8 2 47 7 85 10 82 8 101 10 175 19 30 4 73 9 95 12 22 3 65 9 95 14 30 5
79 12 109 15 30 4 61 8 70 10 9 1 52 8 96 15 98 14 73 10 410 65 487 79 512
84 577 106 71 25 205 88 318 150 282 155 383 188 505 165 88 -17 185 -103 259
-229 28 -49 62 -86 125 -140 47 -39 93 -78 101 -86 26 -25 252 -192 340 -251
195 -131 465 -282 677 -378 157 -71 537 -214 604 -227 9 -2 48 -13 87 -24 138
-41 330 -86 497 -117 99 -18 108 -19 180 -28 28 -4 61 -8 75 -11 14 -2 52 -7
85 -11 33 -3 67 -8 75 -9 8 -2 62 -6 120 -10 58 -4 125 -9 150 -11 57 -5 519
-4 585 1 28 2 95 6 150 10 55 3 109 8 120 10 11 2 49 7 84 10 71 6 68 6 258
35 203 31 250 43 518 135 138 47 255 87 260 89 6 2 23 8 38 14 16 7 32 12 37
12 4 0 52 18 106 39 55 21 131 51 169 66 250 97 692 312 895 435 167 101 354
226 505 338 120 90 269 205 285 222 3 3 39 34 80 69 242 205 613 573 836 831
21 25 42 47 45 50 5 5 192 223 227 265 9 11 35 43 57 70 21 28 42 52 45 55 8
8 158 193 228 283 165 211 343 539 469 867 24 63 48 124 53 135 9 18 40 104
60 165 4 14 34 97 65 185 31 88 58 167 60 175 2 8 16 49 30 90 25 69 161 520
170 564 3 11 11 40 20 66 9 26 17 55 20 66 2 10 30 118 63 239 52 195 96 362
107 413 2 9 18 80 35 157 18 77 34 151 36 165 3 14 7 32 9 40 3 8 7 33 10 55
4 22 8 47 10 55 3 8 7 33 10 55 3 22 10 63 15 90 5 28 12 65 15 83 3 17 7 44
9 60 6 35 12 81 31 227 8 66 17 134 20 150 2 17 7 50 10 75 3 25 12 95 20 155
13 102 18 143 31 265 2 25 6 61 9 80 11 93 16 139 20 190 3 30 7 75 10 100 3
25 7 74 10 110 4 59 9 114 20 250 2 25 7 101 10 170 4 69 9 154 10 190 5 92 5
626 0 680 -3 25 -7 158 -9 295 -5 279 3 355 49 446 32 65 57 94 110 124 115
66 301 65 589 -5 44 -10 95 -21 111 -24 17 -3 55 -10 85 -17 74 -14 300 -20
375 -9 72 11 167 40 226 71 191 96 309 253 394 519 45 143 75 228 92 260 7 14
13 29 13 33 0 5 29 66 64 136 57 115 84 165 123 226 7 11 20 34 29 50 19 34
225 347 233 355 4 3 33 46 66 95 32 50 62 92 65 95 7 6 61 87 75 110 5 10 40
65 77 122 37 57 66 105 65 108 -1 3 8 20 21 38 13 17 20 32 16 32 -3 0 -1 7 6
15 6 8 19 36 27 62 58 182 49 321 -28 477 -27 54 -103 173 -118 186 -3 3 -19
23 -36 45 -16 22 -34 45 -40 51 -5 6 -21 25 -35 43 -14 18 -32 40 -40 49 -35
38 -100 122 -156 202 -80 116 -242 277 -432 430 -87 69 -259 190 -271 190 -5
0 -11 3 -13 8 -4 10 -157 101 -268 159 -245 128 -586 251 -826 297 -161 31
-217 40 -334 51 -14 1 -59 15 -100 30 -96 36 -230 39 -326 7 -149 -49 -244
-111 -539 -347 -163 -131 -231 -179 -313 -220 -64 -32 -91 -39 -157 -39 -125
1 -213 98 -305 337 -22 56 -48 118 -58 137 -35 68 -132 203 -313 435 -207 267
-271 433 -210 557 24 51 65 85 153 129 34 18 79 42 98 54 38 24 144 81 315
170 61 32 142 74 180 95 39 21 115 61 170 91 262 139 491 290 666 441 50 42
68 65 73 90 3 18 9 44 12 58 3 14 7 38 9 54 2 15 6 35 9 45 3 9 8 41 11 71 3
30 8 66 10 80 16 102 25 786 11 808 -2 4 -7 28 -11 52 -6 38 -39 210 -50 260
-2 8 -13 58 -24 111 -19 90 -76 318 -120 474 -80 287 -195 615 -319 910 -76
181 -280 595 -307 625 -8 9 -15 20 -15 23 0 10 -192 318 -214 344 -2 3 -210
35 -301 48 -22 3 -74 10 -115 16 -115 16 -206 28 -258 34 -26 3 -63 8 -82 10
-84 11 -213 23 -350 32 -207 13 -600 7 -710 -11 -14 -3 -47 -7 -75 -11 -27 -3
-59 -8 -70 -10 -81 -18 -202 -33 -315 -40 -58 -3 -125 -8 -150 -10 -25 -2 -90
-7 -145 -10 -186 -11 -253 -17 -395 -30 -25 -3 -72 -7 -105 -10 -76 -8 -111
-12 -205 -26 -41 -6 -91 -13 -110 -16 -67 -9 -310 -64 -390 -88 -323 -97 -564
-252 -695 -449 -78 -117 -120 -219 -156 -381 -27 -119 -26 -114 -34 -176 -4
-30 -8 -56 -10 -59 -2 -3 -6 -34 -10 -70 -4 -36 -9 -73 -11 -84 -2 -10 -6 -44
-9 -75 -3 -31 -8 -67 -10 -81 -2 -14 -7 -54 -10 -90 -9 -92 -35 -298 -44 -340
-6 -30 -11 -35 -36 -35 -17 -1 -46 3 -65 7 -19 4 -51 10 -70 13 -45 8 -286 69
-370 94 -383 115 -642 183 -780 205 -19 3 -45 8 -57 10 -65 14 -172 20 -283
17 -237 -5 -385 -5 -445 2 -210 24 -315 103 -315 236 0 96 78 269 198 436 51
72 69 110 128 273 40 111 115 357 128 422 3 14 8 36 11 50 3 14 7 36 10 50 3
14 7 34 9 45 26 133 39 428 23 555 -49 404 -238 770 -606 1180 -166 184 -237
252 -326 313 -49 33 -91 64 -93 69 -2 4 -8 8 -14 8 -6 0 -31 15 -57 34 -164
118 -444 296 -566 358 -103 53 -320 140 -382 153 -10 2 -61 15 -113 28 -52 14
-147 35 -210 47 -63 11 -123 23 -133 25 -9 2 -43 -14 -75 -35z"/>
</g>
</svg>
