<?xml version="1.0" standalone="no"?>
<!DOCTYPE svg PUBLIC "-//W3C//DTD SVG 20010904//EN"
 "http://www.w3.org/TR/2001/REC-SVG-20010904/DTD/svg10.dtd">
<svg version="1.0" xmlns="http://www.w3.org/2000/svg"
 width="809.000000pt" height="809.000000pt" viewBox="0 0 809.000000 809.000000"
 preserveAspectRatio="xMidYMid meet">
<metadata>
Created by potrace 1.11, written by Peter Selinger 2001-2013
</metadata>
<g transform="translate(0.000000,809.000000) scale(0.100000,-0.100000)"
fill="#000000" stroke="none">
<path d="M5147 6329 c-15 -4 -64 -10 -110 -14 -330 -25 -464 -88 -681 -318
-98 -105 -99 -108 -91 -259 7 -138 8 -176 6 -194 -1 -7 -32 -9 -88 -8 -49 2
-110 -2 -138 -7 -27 -6 -61 -12 -74 -15 -14 -3 -29 -8 -34 -11 -5 -3 -7 3 -4
13 3 11 8 44 12 74 4 30 9 64 11 75 3 11 7 47 10 80 3 33 10 71 14 85 18 51
20 101 5 129 -47 93 -295 236 -477 277 -10 2 -28 6 -40 9 -23 5 -57 11 -120
19 -240 33 -258 24 -421 -218 -47 -69 -93 -150 -102 -179 -10 -28 -32 -81 -50
-117 -64 -126 -95 -292 -74 -391 6 -29 22 -58 43 -80 17 -19 45 -52 61 -74 16
-22 51 -61 77 -88 26 -26 48 -50 48 -55 0 -4 -24 -22 -53 -39 -29 -17 -76 -55
-105 -84 -29 -28 -52 -48 -53 -43 -1 20 -28 155 -44 224 -2 8 -4 20 -4 27 -1
11 -49 63 -90 96 -50 40 -206 107 -284 121 -15 3 -35 7 -45 10 -21 6 -143 18
-197 19 -45 1 -114 -8 -162 -22 -18 -5 -33 -8 -33 -6 0 2 -17 -3 -37 -11 -46
-19 -88 -58 -101 -93 -6 -14 -14 -35 -18 -46 -4 -11 -8 -22 -9 -25 -1 -3 -4
-12 -8 -20 -93 -239 -89 -454 14 -738 48 -132 66 -148 207 -188 96 -27 142
-44 142 -51 0 -3 -13 -22 -28 -42 -16 -20 -42 -58 -57 -86 -16 -27 -32 -52
-35 -55 -3 -3 -40 -57 -82 -120 -94 -141 -150 -198 -231 -238 -97 -47 -175
-61 -428 -77 -47 -3 -96 -7 -108 -10 -13 -2 -67 -7 -120 -10 -183 -10 -262
-26 -381 -77 -96 -41 -163 -83 -222 -140 -89 -84 -195 -238 -227 -328 -13 -36
-35 -90 -48 -120 -14 -30 -26 -59 -28 -65 -1 -5 -5 -17 -8 -25 -29 -72 -48
-154 -44 -197 6 -60 24 -130 37 -138 6 -4 8 -10 5 -15 -7 -11 83 -130 137
-180 61 -57 139 -92 213 -96 33 -2 71 -6 85 -9 30 -7 185 -7 220 0 14 3 41 8
60 11 19 3 53 10 75 16 22 5 47 11 55 13 8 2 35 8 60 15 25 7 60 14 79 16 19
3 37 6 41 9 3 2 29 7 56 10 97 12 154 27 309 80 132 44 148 48 198 46 43 -2
56 -45 50 -164 -4 -92 -3 -101 25 -160 16 -34 42 -77 58 -96 62 -72 206 -145
334 -170 30 -6 66 -14 80 -17 14 -4 69 -8 122 -9 228 -6 406 98 520 305 73
135 147 329 173 458 6 28 10 32 28 26 19 -6 52 -15 107 -28 72 -18 226 -47
275 -52 33 -3 63 -8 66 -10 23 -14 345 -20 549 -11 125 6 162 10 230 23 14 3
34 6 45 8 11 2 30 6 41 10 20 6 26 -5 74 -123 77 -193 124 -264 205 -308 67
-36 413 -47 567 -18 126 24 277 179 303 312 18 92 22 188 11 304 l-7 77 36 6
c19 4 81 23 137 42 195 67 273 79 406 59 75 -10 208 -61 325 -123 61 -33 151
-74 199 -90 92 -33 305 -87 376 -96 24 -3 46 -8 50 -10 4 -2 43 -7 87 -11 132
-11 158 -14 210 -21 65 -10 194 -10 273 -1 250 30 399 103 472 231 26 44 30
61 30 129 0 64 -4 84 -21 108 -11 16 -17 29 -14 29 8 0 -52 78 -84 107 -31 30
-97 60 -145 67 -21 4 -41 8 -45 10 -3 2 -40 6 -81 10 -41 3 -86 8 -100 10 -14
3 -59 7 -100 11 -41 3 -86 8 -100 10 -14 2 -45 6 -70 9 -208 26 -600 184 -828
333 -158 104 -164 112 -351 488 -61 121 -118 232 -128 247 -9 15 -15 30 -12
32 7 7 73 15 168 21 110 7 123 10 175 34 30 15 61 42 89 79 42 56 122 180 126
194 1 4 10 28 21 54 11 25 22 55 24 67 3 12 12 55 20 95 9 40 16 92 16 115 0
43 -22 87 -42 87 -6 0 -19 6 -27 13 -42 35 -304 143 -396 163 -11 2 -33 7 -50
11 -42 9 -199 9 -265 0 -117 -17 -151 -33 -204 -95 -95 -111 -169 -192 -177
-192 -4 0 -14 6 -21 13 -31 29 -100 79 -166 120 l-72 44 43 29 c23 16 76 54
117 85 41 31 98 68 125 82 95 48 100 55 98 139 -2 63 -7 117 -17 203 -4 25
-51 183 -76 252 -25 66 -82 187 -112 233 -12 19 -22 38 -23 41 0 4 -15 25 -33
48 -56 70 -122 92 -205 70z"/>
</g>
</svg>
